<mxfile host="app.diagrams.net" modified="2023-12-18T06:56:34.116Z" agent="Mozilla/5.0 (Macintosh; Intel Mac OS X 10_15_7) AppleWebKit/537.36 (KHTML, like Gecko) Chrome/120.0.0.0 Safari/537.36" version="21.2.1" etag="JbxDMDsI0_CRuyRRWDgY" type="github">
  <diagram name="第 1 页" id="NmEqa_hMf4b8frqRGkLi">
    <mxGraphModel>
      <root>
        <mxCell id="0" />
        <mxCell id="1" parent="0" />
      </root>
    </mxGraphModel>
  </diagram>
</mxfile>
